<svg xmlns="http://www.w3.org/2000/svg" viewBox="0 0 633 783.97"><defs><style>.cls-1{fill:red;}.cls-2{fill:#fc0;}.cls-3{fill:#393;}.cls-4{fill:#069;}.cls-10,.cls-5,.cls-7,.cls-9{fill:#fff;}.cls-10,.cls-12,.cls-6,.cls-7,.cls-8,.cls-9{stroke:#1d1d1b;}.cls-10,.cls-12,.cls-13,.cls-6,.cls-7,.cls-8,.cls-9{stroke-miterlimit:10;}.cls-8,.cls-9{stroke-width:0.9px;}.cls-10{stroke-width:8px;}.cls-11{font-size:22px;font-family:PalatinoLinotype-Roman, Palatino Linotype;}.cls-12{fill:none;stroke-width:2.61px;}.cls-13{fill:#1d1d1b;stroke:#706f6f;stroke-width:0.43px;}</style></defs><g id="Layer_2" data-name="Layer 2"><g id="Layer_2-2" data-name="Layer 2"><path d="M147.5,161.26V538.41c-28.14-48.92-45.48-99.57-56-146.52C67.07,282.47,79.82,193.24,79.82,193.24Z"/><path class="cls-1" d="M219.5,129.64v500a443.91,443.91,0,0,1-72-92.58V163Z"/><path class="cls-2" d="M290.5,93.89v595.9a451.46,451.46,0,0,1-71-58.06V127.56Z"/><path class="cls-3" d="M539.6,391.86H316.5v-298l80.09,33.67,80.1,33.67,76.08,32S567.1,282.44,539.6,391.86Z"/><path class="cls-4" d="M539.6,391.86c-11.79,46.95-31.28,97.6-62.91,146.52a456.54,456.54,0,0,1-80.1,93.35,502,502,0,0,1-80.09,58.06V391.86Z"/><g id="Cruz"><g id="Abajo"><path class="cls-5" d="M316.5,691.84h25V674.17q-12.06,8-25,15.62Z"/><path class="cls-5" d="M316.5,391.84v298q13-7.6,25-15.62V416.84Z"/><polyline class="cls-6" points="316.5 391.84 341.5 416.84 341.5 691.84 316.5 691.84"/><polyline class="cls-7" points="316.5 391.84 291.5 416.84 291.5 691.84 316.5 691.84"/></g><g id="Arriba"><polyline class="cls-6" points="316.5 391.84 291.5 366.84 291.5 91.84 316.5 91.84"/><polyline class="cls-7" points="316.5 391.84 341.5 366.84 341.5 91.84 316.5 91.84"/></g><g id="Abajo-2" data-name="Abajo"><polyline class="cls-8" points="316.5 391.84 341.5 366.84 561.5 366.84 561.5 391.84"/><polyline class="cls-9" points="316.5 391.84 341.5 416.84 561.5 416.84 561.5 391.84"/></g><g id="Arriba-2" data-name="Arriba"><polyline class="cls-6" points="316.29 391.84 291.5 416.84 71.29 416.84 71.29 391.84"/><polyline class="cls-7" points="316.29 391.84 291.5 366.84 71.29 366.84 71.29 391.84"/></g></g><path class="cls-10" d="M624.14,133.51,316.5,4.34,8.86,133.51S-59.5,558.68,316.5,779.34C692.5,558.68,624.14,133.51,624.14,133.51ZM316.5,689.79C27.39,520.12,80,193.21,80,193.21L316.5,93.89,553,193.21S605.61,520.12,316.5,689.79Z"/><g id="Texto"><text class="cls-11" transform="matrix(0.62, -0.79, 0.79, 0.62, 474.33, 608.88)">F</text><text class="cls-11" transform="translate(482.03 599.13) rotate(-53.23)">R</text><text class="cls-11" transform="translate(490.98 587.18) rotate(-54.98)">A</text><text class="cls-11" transform="matrix(0.55, -0.83, 0.83, 0.55, 500.86, 572.97)">I</text><text class="cls-11" transform="matrix(0.54, -0.84, 0.84, 0.54, 505.08, 566.7)">L</text><text class="cls-11" transform="matrix(0.52, -0.86, 0.86, 0.52, 512.41, 555.2)">E</text><text class="cls-11" transform="matrix(0.5, -0.87, 0.87, 0.5, 519.42, 543.53)">S</text><text class="cls-11" transform="translate(525.19 533.38) rotate(-61.2)"> </text><text class="cls-11" transform="translate(527.97 528.45) rotate(-62.4)">D</text><text class="cls-11" transform="translate(535.96 513.14) rotate(-64.22)">O</text><text class="cls-11" transform="matrix(0.4, -0.92, 0.92, 0.4, 543.63, 497.33)">M</text><text class="cls-11" transform="translate(552.02 478.08) rotate(-67.66)">I</text><text class="cls-11" transform="matrix(0.36, -0.93, 0.93, 0.36, 554.95, 471.1)">N</text><text class="cls-11" transform="matrix(0.34, -0.94, 0.94, 0.34, 561.52, 453.86)">I</text><text class="cls-11" transform="translate(564.12 446.74) rotate(-71.38)">C</text><text class="cls-11" transform="translate(569.17 431.77) rotate(-72.98)">O</text><text class="cls-11" transform="translate(574.25 415.03) rotate(-74.36)">S</text><text class="cls-11" transform="translate(577.37 403.81) rotate(-75.17)"> </text><text class="cls-11" transform="translate(578.83 398.39) rotate(-76.06)">B</text><text class="cls-11" transform="translate(582.14 385.15) rotate(-77.47)">A</text><text class="cls-11" transform="translate(585.88 368.25) rotate(-78.92)">R</text><text class="cls-11" transform="translate(588.74 353.65) rotate(-80.24)">R</text><text class="cls-11" transform="matrix(0.15, -0.99, 0.99, 0.15, 591.27, 338.99)">A</text><text class="cls-11" transform="matrix(0.12, -0.99, 0.99, 0.12, 593.79, 321.87)">N</text><text class="cls-11" transform="matrix(0.09, -1, 1, 0.09, 595.97, 303.51)">Q</text><text class="cls-11" transform="translate(597.58 286.09) rotate(-86.21)">U</text><text class="cls-11" transform="translate(598.67 268.85) rotate(-87.26)">I</text><text class="cls-11" transform="matrix(0.03, -1, 1, 0.03, 599.06, 261.32)">L</text><text class="cls-11" transform="translate(599.49 247.74) rotate(-89.34)">L</text><text class="cls-11" transform="translate(599.67 234.13) rotate(-90.71)">A</text><text class="cls-11" transform="translate(152.79 575.91) rotate(-124.76)">C</text><text class="cls-11" transform="matrix(-0.54, -0.84, 0.84, -0.54, 144.02, 563.3)">O</text><text class="cls-11" transform="translate(134.75 548.96) rotate(-121.28)">L</text><text class="cls-11" transform="translate(127.87 537.64) rotate(-119.83)">E</text><text class="cls-11" transform="translate(121.27 526.18) rotate(-118.2)">G</text><text class="cls-11" transform="translate(113.46 511.51) rotate(-116.92)">I</text><text class="cls-11" transform="translate(110.13 505.09) rotate(-115.61)">O</text><text class="cls-11" transform="translate(102.78 489.61) rotate(-114.42)"> </text><text class="cls-11" transform="matrix(-0.4, -0.92, 0.92, -0.4, 100.53, 484.71)">S</text><text class="cls-11" transform="translate(95.96 474.33) rotate(-112.07)">A</text><text class="cls-11" transform="translate(89.61 458.69) rotate(-110.29)">N</text><text class="cls-11" transform="translate(83.38 441.66) rotate(-109.1)"> </text><text class="cls-11" transform="translate(81.83 437.37) rotate(-108.07)">A</text><text class="cls-11" transform="translate(76.61 421.28) rotate(-106.59)">L</text><text class="cls-11" transform="translate(72.82 408.57) rotate(-105.31)">B</text><text class="cls-11" transform="matrix(-0.24, -0.97, 0.97, -0.24, 69.31, 395.78)">E</text><text class="cls-11" transform="translate(66.08 382.9) rotate(-102.74)">R</text><text class="cls-11" transform="translate(62.89 368.75) rotate(-101.46)">T</text><text class="cls-11" transform="matrix(-0.17, -0.98, 0.98, -0.17, 60.22, 355.71)">O</text><text class="cls-11" transform="matrix(-0.16, -0.99, 0.99, -0.16, 57.27, 338.8)"> </text><text class="cls-11" transform="translate(56.35 333.54) rotate(-97.9)">M</text><text class="cls-11" transform="translate(53.54 313.14) rotate(-96.25)">A</text><text class="cls-11" transform="matrix(-0.08, -1, 1, -0.08, 51.7, 296.33)">G</text><text class="cls-11" transform="matrix(-0.06, -1, 1, -0.06, 50.3, 279.8)">N</text><text class="cls-11" transform="translate(49.27 261.76) rotate(-91.74)">O</text><text class="cls-11" transform="translate(54.67 167.34) rotate(-22.78)">I</text><text class="cls-11" transform="translate(61.49 164.47) rotate(-22.78)">N</text><text class="cls-11" transform="translate(78.35 157.39) rotate(-22.78)">D</text><text class="cls-11" transform="translate(94.06 150.79) rotate(-22.78)">U</text><text class="cls-11" transform="translate(109.84 144.17) rotate(-22.78)">L</text><text class="cls-11" transform="translate(122.24 138.96) rotate(-22.78)">C</text><text class="cls-11" transform="translate(136.62 132.93) rotate(-22.78)">E</text><text class="cls-11" transform="translate(148.99 127.73) rotate(-22.78)">D</text><text class="cls-11" transform="translate(164.7 121.14) rotate(-22.78)">I</text><text class="cls-11" transform="translate(171.52 118.27) rotate(-22.78)">N</text><text class="cls-11" transform="translate(188.38 111.19) rotate(-22.78)">E</text><text class="cls-11" transform="matrix(0.92, -0.39, 0.39, 0.92, 200.78, 105.99)"> </text><text class="cls-11" transform="translate(205.86 103.86) rotate(-22.78)">F</text><text class="cls-11" transform="matrix(0.92, -0.39, 0.39, 0.92, 217.14, 99.12)">R</text><text class="cls-11" transform="translate(230.67 93.44) rotate(-22.78)">A</text><text class="cls-11" transform="matrix(0.92, -0.39, 0.39, 0.92, 244.94, 87.45)">T</text><text class="cls-11" transform="translate(257.38 82.22) rotate(-22.78)">E</text><text class="cls-11" transform="translate(269.78 77.02) rotate(-22.78)">R</text><text class="cls-11" transform="translate(282.66 71.12) rotate(-18.6)">N</text><text class="cls-11" transform="translate(298.99 65.95) rotate(-10.11)">I</text><text class="cls-11" transform="translate(305.38 64.57) rotate(-3.18)">T</text><text class="cls-11" transform="matrix(0.99, 0.1, -0.1, 0.99, 316.23, 63.62)">A</text><text class="cls-11" transform="translate(330.48 65.03) rotate(15.05)">T</text><text class="cls-11" transform="matrix(0.92, 0.39, -0.39, 0.92, 342.48, 68.31)">E</text><text class="cls-11" transform="translate(354.88 73.52) rotate(22.78)">S</text><text class="cls-11" transform="translate(365.54 77.99) rotate(22.78)"> </text><text class="cls-11" transform="matrix(0.92, 0.39, -0.39, 0.92, 370.59, 80.11)">V</text><text class="cls-11" transform="matrix(0.92, 0.39, -0.39, 0.92, 385.25, 86.27)">E</text><text class="cls-11" transform="translate(397.64 91.47) rotate(22.78)">R</text><text class="cls-11" transform="translate(411.19 97.16) rotate(22.78)">I</text><text class="cls-11" transform="matrix(0.92, 0.39, -0.39, 0.92, 418.01, 100.02)">T</text><text class="cls-11" transform="translate(429.15 104.7) rotate(22.78)">A</text><text class="cls-11" transform="translate(443.42 110.69) rotate(22.78)">T</text><text class="cls-11" transform="translate(455.87 115.92) rotate(22.78)">E</text><text class="cls-11" transform="matrix(0.92, 0.39, -0.39, 0.92, 468.24, 121.12)">M</text><text class="cls-11" transform="matrix(0.92, 0.39, -0.39, 0.92, 487.43, 129.17)"> </text><text class="cls-11" transform="translate(492.49 131.3) rotate(22.78)">Q</text><text class="cls-11" transform="translate(508.45 138) rotate(22.78)">U</text><text class="cls-11" transform="matrix(0.92, 0.39, -0.39, 0.92, 524.24, 144.62)">A</text><text class="cls-11" transform="translate(540 151.24) rotate(22.78)">E</text><text class="cls-11" transform="matrix(0.92, 0.39, -0.39, 0.92, 552.41, 156.45)">R</text><text class="cls-11" transform="translate(565.94 162.14) rotate(22.78)">E</text></g><ellipse class="cls-12" cx="446.5" cy="261.84" rx="44.27" ry="85.22" transform="translate(-19.43 487.3) rotate(-56.21)"/><ellipse class="cls-12" cx="446.5" cy="261.84" rx="85.22" ry="44.27" transform="translate(155.73 690.05) rotate(-86.21)"/><ellipse class="cls-12" cx="446.5" cy="261.84" rx="85.22" ry="44.27" transform="translate(-70.2 292.54) rotate(-33.79)"/><circle class="cls-13" cx="448.67" cy="262.14" r="4.27"/><circle class="cls-13" cx="451.78" cy="270.98" r="4.27"/><circle class="cls-13" cx="452.6" cy="253.87" r="4.27"/><circle class="cls-13" cx="457.79" cy="262.88" r="4.27"/><circle class="cls-13" cx="441.88" cy="256.27" r="4.27"/><circle class="cls-13" cx="441.22" cy="267.45" r="4.27"/></g></g></svg>