<?xml version="1.0" encoding="UTF-8"?>
<svg version="1.1" xmlns="http://www.w3.org/2000/svg" width="256" height="256">
<path d="M0 0 C1.21042969 -0.00128906 2.42085937 -0.00257812 3.66796875 -0.00390625 C4.94285156 -0.00003906 6.21773437 0.00382812 7.53125 0.0078125 C9.44357422 0.00201172 9.44357422 0.00201172 11.39453125 -0.00390625 C13.21017578 -0.00197266 13.21017578 -0.00197266 15.0625 0 C16.18205078 0.00112793 17.30160156 0.00225586 18.45507812 0.00341797 C21.03125 0.1328125 21.03125 0.1328125 22.03125 1.1328125 C22.05513595 3.33202643 22.01995328 5.53191705 21.9609375 7.73046875 C21.95002362 9.10349448 21.94231835 10.47654873 21.9375 11.84960938 C21.9296795 14.01564347 21.90698539 16.17487291 21.82910156 18.33959961 C21.41410306 27.17048636 21.41410306 27.17048636 25.29858398 34.79272461 C28.11741339 36.89384914 30.89138737 38.55780482 34.03125 40.1328125 C34.73056641 40.51042725 35.42988281 40.88804199 36.15039062 41.27709961 C37.83885681 42.1316004 39.59107745 42.85670995 41.34375 43.5703125 C42.47425781 44.04339844 43.60476562 44.51648438 44.76953125 45.00390625 C57.36844769 49.3644893 72.86933398 48.31301375 84.93359375 42.80859375 C87.72895233 41.34764503 90.38396376 39.84906163 93.03125 38.1328125 C93.71509766 37.81570312 94.39894531 37.49859375 95.10351562 37.171875 C97.72717946 35.71869699 99.23829895 34.55877108 101.03125 32.1328125 C102.18138427 26.67120618 102.10724737 21.31768367 102.03125 15.7578125 C102.03934811 14.24346589 102.05103108 12.72913396 102.06640625 11.21484375 C102.10284857 7.51797247 102.06530808 3.83237143 102.03125 0.1328125 C111.27125 0.1328125 120.51125 0.1328125 130.03125 0.1328125 C131.31293909 2.69619068 131.15711803 4.50681832 131.15823364 7.37782288 C131.16105347 8.48979538 131.16387329 9.60176788 131.16677856 10.74743652 C131.16374222 12.58574036 131.16374222 12.58574036 131.16064453 14.46118164 C131.16327301 16.39041725 131.16327301 16.39041725 131.16595459 18.35862732 C131.17052274 21.89153075 131.16874201 25.42440505 131.1655755 28.95730901 C131.16304926 32.64841495 131.16539013 36.33951835 131.16696167 40.03062439 C131.16878236 46.22883554 131.16637944 52.42703479 131.16162109 58.62524414 C131.15617627 65.80072198 131.15794313 72.97617142 131.1634475 80.15164858 C131.16797862 86.30367307 131.16862925 92.45568898 131.16600883 98.60771459 C131.16444636 102.28593152 131.16425152 105.96413507 131.16754532 109.64235115 C131.17095787 113.73953065 131.16623433 117.8366608 131.16064453 121.93383789 C131.16266876 123.16139801 131.16469299 124.38895813 131.16677856 125.65371704 C131.16395874 126.76286972 131.16113892 127.8720224 131.15823364 129.01478577 C131.1576681 130.46962671 131.1576681 130.46962671 131.15709114 131.95385838 C131.03125 134.1328125 131.03125 134.1328125 130.03125 135.1328125 C128.25964682 135.22915709 126.48416592 135.25468731 124.70994568 135.25306702 C123.55583191 135.25444168 122.40171814 135.25581635 121.21263123 135.25723267 C119.93517532 135.25363739 118.65771942 135.25004211 117.34155273 135.24633789 C115.99166872 135.24605602 114.64178456 135.24621375 113.29190063 135.2467804 C109.61644392 135.24706837 105.94101957 135.24117166 102.2655704 135.23420644 C98.42851851 135.22797288 94.59146596 135.2273691 90.75440979 135.22618103 C83.48353782 135.22306772 76.21268081 135.21485433 68.94181544 135.20483154 C60.66625648 135.1936704 52.39069682 135.18815995 44.11513221 135.18313611 C27.08716281 135.17267172 10.05920798 135.15507228 -6.96875 135.1328125 C-6.99207844 117.67865515 -7.0097289 100.22450265 -7.02056217 82.77033329 C-7.02572525 74.66662641 -7.03276816 66.56292919 -7.04418945 58.45922852 C-7.05413594 51.39859128 -7.06060334 44.33796104 -7.06283849 37.27731699 C-7.06414566 33.53646792 -7.06723189 29.79563888 -7.07448006 26.05479622 C-7.08249324 21.88556137 -7.08274116 17.71636166 -7.08227539 13.54711914 C-7.08587067 12.29771545 -7.08946594 11.04831177 -7.09317017 9.76104736 C-7.0917955 8.63217606 -7.09042084 7.50330475 -7.08900452 6.34022522 C-7.08992631 5.35298493 -7.0908481 4.36574465 -7.09179783 3.34858799 C-6.84253477 -1.13999972 -3.83160398 0.00386028 0 0 Z M94.71484375 46.6875 C90.99162748 52.09523407 93.04406371 59.95539559 94.03125 66.1328125 C94.34382947 67.80349588 94.66636875 69.47276715 95.03125 71.1328125 C98.70965889 68.85973586 98.70965889 68.85973586 102.03125 66.1328125 C102.11838831 64.42508892 102.13825007 62.71382601 102.12890625 61.00390625 C102.12568359 59.96943359 102.12246094 58.93496094 102.11914062 57.86914062 C102.11076172 56.78052734 102.10238281 55.69191406 102.09375 54.5703125 C102.08923828 53.47783203 102.08472656 52.38535156 102.08007812 51.25976562 C102.06824826 48.55072755 102.05176543 45.84179651 102.03125 43.1328125 C99.24433937 43.1328125 96.85226228 45.11015371 94.71484375 46.6875 Z M22.03125 44.1328125 C21.88591245 47.7157185 21.79717069 51.29786667 21.71875 54.8828125 C21.67685547 55.89859375 21.63496094 56.914375 21.59179688 57.9609375 C21.34403373 63.96841155 21.34403373 63.96841155 24.48828125 68.8359375 C26.70396169 70.2085317 26.70396169 70.2085317 28.03125 70.1328125 C28.36844047 67.57076706 28.70112153 65.00826932 29.03125 62.4453125 C29.17433594 61.3634668 29.17433594 61.3634668 29.3203125 60.25976562 C30.14815622 54.70124782 30.14815622 54.70124782 30.03125 49.1328125 C28.57846177 47.46672007 28.57846177 47.46672007 26.59375 46.3203125 C25.95566406 45.90136719 25.31757812 45.48242188 24.66015625 45.05078125 C23.1976792 44.0509866 23.1976792 44.0509866 22.03125 44.1328125 Z M35.03125 52.1328125 C34.37125 59.3928125 33.71125 66.6528125 33.03125 74.1328125 C35.135 74.9578125 37.23875 75.7828125 39.40625 76.6328125 C41.18128906 77.32890625 41.18128906 77.32890625 42.9921875 78.0390625 C45.8065744 79.24569044 45.8065744 79.24569044 48.03125 79.1328125 C48.03125 71.5428125 48.03125 63.9528125 48.03125 56.1328125 C43.74125 54.8128125 39.45125 53.4928125 35.03125 52.1328125 Z M75.03125 57.1328125 C75.03125 64.3928125 75.03125 71.6528125 75.03125 79.1328125 C82.33555349 77.60529935 82.33555349 77.60529935 89.03125 75.1328125 C89.26701736 67.50966776 88.86842315 60.54711841 87.03125 53.1328125 C82.81487979 53.1328125 78.94605146 55.56689191 75.03125 57.1328125 Z M54.03125 58.1328125 C53.26496455 65.50831 52.90219892 72.71954473 53.03125 80.1328125 C54.92617746 80.32925634 56.82225903 80.51458538 58.71875 80.6953125 C59.77449219 80.79972656 60.83023438 80.90414062 61.91796875 81.01171875 C64.84551086 81.12558802 67.20256144 80.84129665 70.03125 80.1328125 C70.16030108 72.71954473 69.79753545 65.50831 69.03125 58.1328125 C64.08125 58.1328125 59.13125 58.1328125 54.03125 58.1328125 Z M22.03125 78.1328125 C22.03125 90.0128125 22.03125 101.8928125 22.03125 114.1328125 C25.00125 112.1528125 27.97125 110.1728125 31.03125 108.1328125 C45.25638914 99.97427682 60.19617057 97.71671161 76.34375 101.1953125 C85.90641737 103.9977053 93.99572585 109.3931524 102.03125 115.1328125 C102.03125 102.9228125 102.03125 90.7128125 102.03125 78.1328125 C97.31058722 80.02107761 92.86884418 82.20795533 88.37890625 84.56640625 C74.21792248 91.81807486 57.30295169 91.71277597 42.24609375 87.3203125 C35.10633736 84.85478511 28.86814317 81.55125908 22.03125 78.1328125 Z " fill="#2E89BB" transform="translate(67.96875,104.8671875)"/>
<path d="M0 0 C1.21042969 -0.00128906 2.42085937 -0.00257812 3.66796875 -0.00390625 C4.94285156 -0.00003906 6.21773437 0.00382812 7.53125 0.0078125 C9.44357422 0.00201172 9.44357422 0.00201172 11.39453125 -0.00390625 C13.21017578 -0.00197266 13.21017578 -0.00197266 15.0625 0 C16.18205078 0.00112793 17.30160156 0.00225586 18.45507812 0.00341797 C21.03125 0.1328125 21.03125 0.1328125 22.03125 1.1328125 C22.12904277 2.5828838 22.15756739 4.03769338 22.15823364 5.49105835 C22.16105347 6.43260269 22.16387329 7.37414703 22.16677856 8.34422302 C22.16475433 9.38611282 22.1627301 10.42800262 22.16064453 11.50146484 C22.16239685 12.59275192 22.16414917 13.684039 22.16595459 14.80839539 C22.17038266 18.4451961 22.16742814 22.08194872 22.1640625 25.71875 C22.16473614 28.25013234 22.16570667 30.78151461 22.16696167 33.31289673 C22.16844063 38.64122182 22.16637635 43.96952965 22.16162109 49.29785156 C22.15622823 55.41015452 22.15790352 61.52242385 22.1634475 67.63472593 C22.16859013 73.54587196 22.16797045 79.45700552 22.16506577 85.36815262 C22.16440464 87.86442698 22.16519603 90.36070221 22.16754532 92.85697556 C22.17791142 106.99253735 21.91910314 121.02326559 21.03125 135.1328125 C11.79125 135.1328125 2.55125 135.1328125 -6.96875 135.1328125 C-6.99129656 117.67865214 -7.0097289 100.22450415 -7.02056217 82.77033329 C-7.02572525 74.66662641 -7.03276816 66.56292919 -7.04418945 58.45922852 C-7.05413594 51.39859128 -7.06060334 44.33796104 -7.06283849 37.27731699 C-7.06414566 33.53646792 -7.06723189 29.79563888 -7.07448006 26.05479622 C-7.08249324 21.88556137 -7.08274116 17.71636166 -7.08227539 13.54711914 C-7.08587067 12.29771545 -7.08946594 11.04831177 -7.09317017 9.76104736 C-7.0917955 8.63217606 -7.09042084 7.50330475 -7.08900452 6.34022522 C-7.08992631 5.35298493 -7.0908481 4.36574465 -7.09179783 3.34858799 C-6.84253477 -1.13999972 -3.83160398 0.00386028 0 0 Z " fill="#2B88BB" transform="translate(67.96875,104.8671875)"/>
<path d="M0 0 C2.31 1.98 4.62 3.96 7 6 C7 12.6 7 19.2 7 26 C-19.73 26 -46.46 26 -74 26 C-74 7 -74 7 -69 1 C-47.92255203 -14.02524693 -21.63747158 -14.01672687 0 0 Z " fill="#289C6A" transform="translate(163,214)"/>
<path d="M0 0 C0.48726563 0.35191406 0.97453125 0.70382813 1.4765625 1.06640625 C17.17341984 11.9971269 32.1425539 17.2252784 51.3125 14.53515625 C62.10885057 12.15939681 71.03803466 6.24018327 80 0 C81.06701987 9.51849472 81.06701987 9.51849472 78.51171875 13.06640625 C73.93358434 17 73.93358434 17 71 17 C71.99 23.93 72.98 30.86 74 38 C75.98 36.68 77.96 35.36 80 34 C80 37.96 80 41.92 80 46 C68.9661117 52.72479583 58.2093681 58.46036329 45 59 C44.22269531 59.03996094 43.44539063 59.07992187 42.64453125 59.12109375 C27.77414442 59.5229961 13.40709462 55.20575041 1 47 C-1.13586678 43.79619983 -1.23132175 42.98060033 -1.125 39.3125 C-1.10695313 38.50425781 -1.08890625 37.69601563 -1.0703125 36.86328125 C-1.04710938 36.24839844 -1.02390625 35.63351563 -1 35 C2 35 2 35 5 37 C5.33745354 34.60468244 5.6700829 32.20885732 6 29.8125 C6.14308594 28.80219727 6.14308594 28.80219727 6.2890625 27.77148438 C7.14708209 22.38990232 7.14708209 22.38990232 7 17 C5.25209732 15.46035997 5.25209732 15.46035997 3 14.3125 C0.2474802 12.45806867 -0.84186597 11.71760132 -1.56640625 8.4296875 C-1.55661555 1.55661555 -1.55661555 1.55661555 0 0 Z M13 20 C12.34 27.26 11.68 34.52 11 42 C13.10375 42.825 15.2075 43.65 17.375 44.5 C19.15003906 45.19609375 19.15003906 45.19609375 20.9609375 45.90625 C23.7753244 47.11287794 23.7753244 47.11287794 26 47 C26 39.41 26 31.82 26 24 C21.71 22.68 17.42 21.36 13 20 Z M53 25 C53 32.26 53 39.52 53 47 C60.30430349 45.47248685 60.30430349 45.47248685 67 43 C67.23576736 35.37685526 66.83717315 28.41430591 65 21 C60.78362979 21 56.91480146 23.43407941 53 25 Z M32 26 C31.23371455 33.3754975 30.87094892 40.58673223 31 48 C32.89492746 48.19644384 34.79100903 48.38177288 36.6875 48.5625 C37.74324219 48.66691406 38.79898438 48.77132812 39.88671875 48.87890625 C42.81426086 48.99277552 45.17131144 48.70848415 48 48 C48.12905108 40.58673223 47.76628545 33.3754975 47 26 C42.05 26 37.1 26 32 26 Z " fill="#F9C937" transform="translate(90,137)"/>
<path d="M0 0 C1.32 0 2.64 0 4 0 C4 0.66 4 1.32 4 2 C4.84111328 2.36158203 4.84111328 2.36158203 5.69921875 2.73046875 C8.48459489 4.26739107 10.51980133 6.10869433 12.8125 8.3125 C13.62332031 9.07175781 14.43414062 9.83101562 15.26953125 10.61328125 C17 13 17 13 17.00390625 15.56640625 C15.81521477 18.4479424 14.54569502 19.68312378 12.125 21.625 C10.74819092 22.74778527 9.37309367 23.87267407 8 25 C7.4328125 25.42539062 6.865625 25.85078125 6.28125 26.2890625 C3.3330398 30.22600173 4.21297061 36.23533509 4.64648438 40.95800781 C5.33745 44.94919324 7.2109271 48.37815226 9.07202148 51.93481445 C11.89310424 57.42446983 13.7423249 63.00904706 15.4375 68.9375 C15.69611816 69.8135791 15.95473633 70.6896582 16.22119141 71.59228516 C16.45628418 72.43710449 16.69137695 73.28192383 16.93359375 74.15234375 C17.14040771 74.89476318 17.34722168 75.63718262 17.56030273 76.40209961 C18.15032766 79.8881936 18 83.4643274 18 87 C7.11 87 -3.78 87 -15 87 C-16.09700755 82.6119698 -15.58341977 79.70666737 -14.5625 75.4375 C-14.38928223 74.70313721 -14.21606445 73.96877441 -14.03759766 73.2121582 C-11.60109906 63.59860421 -7.81718881 53.81661316 -2.96281433 45.14782715 C-1.91722983 42.81535795 -1.73270374 41.24803616 -1.69702148 38.70629883 C-1.67205849 37.45028618 -1.67205849 37.45028618 -1.64659119 36.16889954 C-1.63396996 34.82652473 -1.63396996 34.82652473 -1.62109375 33.45703125 C-1.60409927 32.53282883 -1.5871048 31.6086264 -1.56959534 30.65641785 C-1.51651461 27.70851434 -1.47617417 24.76062498 -1.4375 21.8125 C-1.39361846 18.85373331 -1.34699016 15.89507734 -1.29469299 12.93644714 C-1.26265266 11.09580296 -1.23578881 9.25506035 -1.21446228 7.41426086 C-1.11176736 1.11176736 -1.11176736 1.11176736 0 0 Z " fill="#EE5936" transform="translate(74,17)"/>
<path d="M0 0 C-0.00636475 1.16345947 -0.01272949 2.32691895 -0.01928711 3.52563477 C-0.03390969 7.91529994 -0.00200027 12.3036874 0.04272461 16.69311523 C0.05572281 18.57913826 0.05673062 20.46528905 0.04467773 22.35131836 C-0.02836811 35.44043824 1.68606597 44.56543743 8 56 C10.02385248 60.86966581 11.47703724 65.95518585 13 71 C13.2475 71.804375 13.495 72.60875 13.75 73.4375 C15.11052054 78.27490635 15 81.68775346 15 87 C4.11 87 -6.78 87 -18 87 C-19.12721074 81.3639463 -19.12721074 81.3639463 -18.25 77.953125 C-18.05704346 77.19837891 -17.86408691 76.44363281 -17.6652832 75.66601562 C-17.33596802 74.47008789 -17.33596802 74.47008789 -17 73.25 C-16.77723389 72.42177734 -16.55446777 71.59355469 -16.32495117 70.74023438 C-13.68664332 61.32218259 -10.45439613 51.1815942 -5 43 C-3.89735748 36.50228516 -3.34056878 30.43523029 -7.1640625 24.82421875 C-10.19898591 21.8024146 -13.14474459 18.9276277 -17 17 C-16.88075457 13.06490078 -15.48269633 11.1878408 -12.8125 8.5 C-11.5545059 7.3195004 -10.28372576 6.15246546 -9 5 C-8.44183594 4.48566406 -7.88367188 3.97132812 -7.30859375 3.44140625 C-3.41873229 0 -3.41873229 0 0 0 Z " fill="#FCC930" transform="translate(186,17)"/>
<path d="M0 0 C20.09567286 -0.60287019 34.22771673 2.48090006 50 16 C50 22.6 50 29.2 50 36 C33.17 36 16.34 36 -1 36 C-1 35.67 -1 35.34 -1 35 C1.31 35 3.62 35 6 35 C6.33 34.01 6.66 33.02 7 32 C7.99 31.67 8.98 31.34 10 31 C11.20043905 29.24316603 11.20043905 29.24316603 12.125 27.125 C12.45757812 26.42632812 12.79015625 25.72765625 13.1328125 25.0078125 C14.83025045 21.07770841 15.10824164 18.06647206 15.0625 13.8125 C15.05347656 12.72582031 15.04445312 11.63914063 15.03515625 10.51953125 C15.02355469 9.68808594 15.01195312 8.85664063 15 8 C10.11429181 5.15543212 5.47932789 2.54545146 0 1 C0 0.67 0 0.34 0 0 Z " fill="#289C69" transform="translate(120,204)"/>
<path d="M0 0 C4.06283817 0.84642462 5.46249851 2.38263699 8 5.625 C9.98125647 10.34953466 10.38632871 14.80710104 10.375 19.875 C10.37338867 20.62354248 10.37177734 21.37208496 10.37011719 22.14331055 C10.21386791 29.23044061 8.93090023 35.51646946 3.9375 40.8125 C3.298125 41.410625 2.65875 42.00875 2 42.625 C-2.71300138 51.70189154 -2.13372163 61.15397216 -2.0625 71.125 C-2.05798828 72.32898438 -2.05347656 73.53296875 -2.04882812 74.7734375 C-2.0371195 77.72401073 -2.02071995 80.67447859 -2 83.625 C-2.99 83.625 -3.98 83.625 -5 83.625 C-5.80757947 80.0791086 -6.12839746 76.80186482 -6.1328125 73.16796875 C-6.13474609 71.62206055 -6.13474609 71.62206055 -6.13671875 70.04492188 C-6.13285156 68.97822266 -6.12898437 67.91152344 -6.125 66.8125 C-6.12886719 65.75740234 -6.13273438 64.70230469 -6.13671875 63.61523438 C-6.13102308 59.0444608 -6.07472771 54.57519246 -5.44921875 50.04296875 C-4.85124209 45.49314631 -5.97944528 42.64282682 -8.02734375 38.59375 C-12.21711294 29.64762361 -12.57654488 18.93691862 -9.8125 9.4375 C-7.81753523 4.57127754 -5.35140328 1.11487568 0 0 Z " fill="#FCC92D" transform="translate(142,56.375)"/>
<path d="M0 0 C3.65166048 2.97228178 5.62339032 5.53216411 7 10 C7.21621733 12.79678518 7.33306828 15.45670425 7.3125 18.25 C7.30730347 19.38344849 7.30730347 19.38344849 7.30200195 20.53979492 C7.16476091 27.58609868 6.22180179 34.77819821 1 40 C0.34 40 -0.32 40 -1 40 C-1.09371851 47.43500208 -1.08404976 54.7175154 -0.375 62.125 C0.19641871 68.98202453 -0.64889398 75.27796839 -2 82 C-2.99 82 -3.98 82 -5 82 C-4.99476318 81.28457031 -4.98952637 80.56914063 -4.98413086 79.83203125 C-4.96319704 76.55469662 -4.95028798 73.27737613 -4.9375 70 C-4.92912109 68.87464844 -4.92074219 67.74929687 -4.91210938 66.58984375 C-4.89462949 60.61172266 -5.15512837 54.91410144 -6 49 C-6.05915294 47.3342531 -6.08854052 45.66659344 -6.0625 44 C-6.05347656 43.236875 -6.04445313 42.47375 -6.03515625 41.6875 C-6.02355469 41.130625 -6.01195313 40.57375 -6 40 C-6.99 39.67 -7.98 39.34 -9 39 C-10.1328125 37.328125 -10.1328125 37.328125 -11.125 35.25 C-11.45757812 34.57453125 -11.79015625 33.8990625 -12.1328125 33.203125 C-15.61223749 24.36350474 -14.71057301 14.97324334 -11.203125 6.328125 C-8.75964049 1.59982381 -5.41844391 -1.21914988 0 0 Z " fill="#F05D36" transform="translate(122,42)"/>
<path d="M0 0 C1.32 0 2.64 0 4 0 C4 0.66 4 1.32 4 2 C4.56074219 2.24105469 5.12148437 2.48210938 5.69921875 2.73046875 C8.48459489 4.26739107 10.51980133 6.10869433 12.8125 8.3125 C13.62332031 9.07175781 14.43414062 9.83101562 15.26953125 10.61328125 C17 13 17 13 17.00390625 15.56640625 C15.81521477 18.4479424 14.54569502 19.68312378 12.125 21.625 C10.74819092 22.74778527 9.37309367 23.87267407 8 25 C7.44441406 25.42667969 6.88882813 25.85335937 6.31640625 26.29296875 C4.31107065 28.89335942 4.22687179 31.46814997 3.8125 34.6875 C3.65394531 35.86699219 3.49539062 37.04648437 3.33203125 38.26171875 C3.22246094 39.16535156 3.11289063 40.06898437 3 41 C2.01 41 1.02 41 0 41 C-1.2692253 37.19232409 -1.14296696 33.61499256 -1.1328125 29.6484375 C-1.13376923 28.83380035 -1.13472595 28.01916321 -1.13571167 27.17984009 C-1.13639166 25.46006188 -1.13454998 23.74028108 -1.13037109 22.02050781 C-1.12500649 19.37819717 -1.13032925 16.73605545 -1.13671875 14.09375 C-1.13605821 12.42447879 -1.13477754 10.75520768 -1.1328125 9.0859375 C-1.13483673 8.29118011 -1.13686096 7.49642273 -1.13894653 6.67758179 C-1.11496014 1.11496014 -1.11496014 1.11496014 0 0 Z " fill="#E95131" transform="translate(74,17)"/>
<path d="M0 0 C0 13.53 0 27.06 0 41 C-1.32 41 -2.64 41 -4 41 C-3.95617187 40.17757812 -3.91234375 39.35515625 -3.8671875 38.5078125 C-3.87955957 33.15070404 -4.00154562 29.37221675 -7.22265625 24.9453125 C-11.70307868 20.43141862 -11.70307868 20.43141862 -17 17 C-16.88075457 13.06490078 -15.48269633 11.1878408 -12.8125 8.5 C-11.5545059 7.3195004 -10.28372576 6.15246546 -9 5 C-8.44183594 4.48566406 -7.88367188 3.97132812 -7.30859375 3.44140625 C-3.41873229 0 -3.41873229 0 0 0 Z " fill="#2C8F5A" transform="translate(186,17)"/>
<path d="M0 0 C2.3125 1.3125 2.3125 1.3125 4.3125 3.3125 C4.67283624 10.63933679 3.81208805 15.76979191 0.3125 22.3125 C-0.3475 22.3125 -1.0075 22.3125 -1.6875 22.3125 C-2.0175 21.6525 -2.3475 20.9925 -2.6875 20.3125 C-3.6775 19.9825 -4.6675 19.6525 -5.6875 19.3125 C-7.64296226 15.63860121 -8.03712168 12.31261165 -8.125 8.1875 C-8.16496094 7.15367187 -8.20492187 6.11984375 -8.24609375 5.0546875 C-7.6875 2.3125 -7.6875 2.3125 -5.328125 0.40234375 C-2.6875 -0.6875 -2.6875 -0.6875 0 0 Z " fill="#7B7F5C" transform="translate(129.6875,210.6875)"/>
<path d="M0 0 C0.99 0 1.98 0 3 0 C3.1678439 5.1959296 3.32837923 10.39201456 3.48217773 15.58837891 C3.53551165 17.35569314 3.5908341 19.12294855 3.64819336 20.89013672 C3.730345 23.43183712 3.80531788 25.97366403 3.87890625 28.515625 C3.90594131 29.30430969 3.93297638 30.09299438 3.96083069 30.90557861 C4.05761846 34.47181166 3.97167997 37.57166067 3 41 C2.01 41 1.02 41 0 41 C-1.2692253 37.19232409 -1.14296696 33.61499256 -1.1328125 29.6484375 C-1.13376923 28.83380035 -1.13472595 28.01916321 -1.13571167 27.17984009 C-1.13639166 25.46006188 -1.13454998 23.74028108 -1.13037109 22.02050781 C-1.12500649 19.37819717 -1.13032925 16.73605545 -1.13671875 14.09375 C-1.13605821 12.42447879 -1.13477754 10.75520768 -1.1328125 9.0859375 C-1.13483673 8.29118011 -1.13686096 7.49642273 -1.13894653 6.67758179 C-1.11496014 1.11496014 -1.11496014 1.11496014 0 0 Z " fill="#55413D" transform="translate(74,17)"/>
<path d="M0 0 C0.763125 0.495 1.52625 0.99 2.3125 1.5 C3.00988281 1.90992188 3.70726562 2.31984375 4.42578125 2.7421875 C6.3125 4.5 6.3125 4.5 6.84375 7.1015625 C6.75394152 15.7905333 5.13344489 22.80591338 -0.6875 29.5 C-4.98184392 27.7444506 -6.01009402 25.58350957 -7.87109375 21.50390625 C-8.85403742 19.09122634 -9.43935365 17.10553667 -9.6875 14.5 C-9.78546875 13.72398437 -9.8834375 12.94796875 -9.984375 12.1484375 C-10.48985524 5.55775282 -10.48985524 5.55775282 -8.30078125 2.671875 C-5.38964337 0.37327589 -3.72156321 -0.69238385 0 0 Z M-7.6875 5.5 C-8.81057928 10.62035487 -8.55586492 16.50188378 -6.1875 21.25 C-5.6925 21.9925 -5.1975 22.735 -4.6875 23.5 C-4.0275 23.5 -3.3675 23.5 -2.6875 23.5 C-2.3575 24.16 -2.0275 24.82 -1.6875 25.5 C-1.0275 25.5 -0.3675 25.5 0.3125 25.5 C3.7434149 19.08568084 5.00060887 13.72514313 4.3125 6.5 C2.08943597 3.91981677 2.08943597 3.91981677 -0.6875 2.5 C-3.75693831 2.5 -5.29025994 3.6436956 -7.6875 5.5 Z " fill="#D3D6BB" transform="translate(129.6875,207.5)"/>
<path d="M0 0 C3.03200339 1.0106678 3.99878825 1.63493157 6 4 C6.33 4.99 6.66 5.98 7 7 C7.66 6.01 8.32 5.02 9 4 C9.99 4.33 10.98 4.66 12 5 C11.34 5 10.68 5 10 5 C9.90628149 12.43500208 9.91595024 19.7175154 10.625 27.125 C11.19641871 33.98202453 10.35110602 40.27796839 9 47 C8.01 47 7.02 47 6 47 C6.00785522 45.92685547 6.00785522 45.92685547 6.01586914 44.83203125 C6.03680296 41.55469662 6.04971202 38.27737613 6.0625 35 C6.07087891 33.87464844 6.07925781 32.74929687 6.08789062 31.58984375 C6.10537051 25.61172266 5.84487163 19.91410144 5 14 C4.94084706 12.3342531 4.91145948 10.66659344 4.9375 9 C4.94652344 8.236875 4.95554687 7.47375 4.96484375 6.6875 C4.97644531 6.130625 4.98804687 5.57375 5 5 C4.01 4.67 3.02 4.34 2 4 C0.8125 1.9375 0.8125 1.9375 0 0 Z " fill="#DD6D49" transform="translate(111,77)"/>
<path d="M0 0 C2.31 0 4.62 0 7 0 C7 7.26 7 14.52 7 22 C4.69 22 2.38 22 0 22 C0 14.74 0 7.48 0 0 Z " fill="#202829" transform="translate(181,137)"/>
<path d="M0 0 C2.31 0 4.62 0 7 0 C7 7.26 7 14.52 7 22 C4.69 22 2.38 22 0 22 C0 14.74 0 7.48 0 0 Z " fill="#20282A" transform="translate(72,137)"/>
<path d="M0 0 C0.99 0 1.98 0 3 0 C3 13.53 3 27.06 3 41 C1.68 41 0.36 41 -1 41 C-0.67 27.47 -0.34 13.94 0 0 Z " fill="#2F4030" transform="translate(183,17)"/>
<path d="M0 0 C0.99 0.33 1.98 0.66 3 1 C3.3721042 2.32303717 3.70630173 3.65737935 4 5 C4.66 5.33 5.32 5.66 6 6 C5.8570752 6.63526611 5.71415039 7.27053223 5.56689453 7.92504883 C3.99346601 15.57850748 3.7612109 22.89294677 3.875 30.6875 C3.88853516 32.47317383 3.88853516 32.47317383 3.90234375 34.29492188 C3.92565228 37.19683367 3.95836877 40.09830317 4 43 C3.01 43 2.02 43 1 43 C0.19242053 39.4541086 -0.12839746 36.17686482 -0.1328125 32.54296875 C-0.13410156 31.51236328 -0.13539063 30.48175781 -0.13671875 29.41992188 C-0.13285156 28.35322266 -0.12898437 27.28652344 -0.125 26.1875 C-0.12886719 25.13240234 -0.13273438 24.07730469 -0.13671875 22.99023438 C-0.13104309 18.43552098 -0.07879167 13.97456505 0.53515625 9.45703125 C1.00012408 5.99907723 0.76165379 3.38512794 0 0 Z " fill="#F4CC51" transform="translate(136,97)"/>
<path d="M0 0 C1.32 0.33 2.64 0.66 4 1 C3.01 1.33 2.02 1.66 1 2 C1.99 8.93 2.98 15.86 4 23 C4.99 22.67 5.98 22.34 7 22 C7 22.66 7 23.32 7 24 C1.25 25 1.25 25 -1 25 C-1.66 25.99 -2.32 26.98 -3 28 C-3.05534912 27.40985107 -3.11069824 26.81970215 -3.16772461 26.21166992 C-3.42067687 23.53658792 -3.679027 20.86205397 -3.9375 18.1875 C-4.02451172 17.25873047 -4.11152344 16.32996094 -4.20117188 15.37304688 C-4.28818359 14.48037109 -4.37519531 13.58769531 -4.46484375 12.66796875 C-4.543396 11.84578857 -4.62194824 11.0236084 -4.70288086 10.17651367 C-4.95551045 7.82512578 -4.95551045 7.82512578 -6 5 C-4.02 5.66 -2.04 6.32 0 7 C0 4.69 0 2.38 0 0 Z " fill="#F6CC49" transform="translate(160,152)"/>
<path d="M0 0 C0.33 0 0.66 0 1 0 C1.07329796 4.39787789 1.07396066 7.70415737 0 12 C10.23 12 20.46 12 31 12 C31 10.02 31 8.04 31 6 C31.33 6 31.66 6 32 6 C32 8.64 32 11.28 32 14 C21.11 14 10.22 14 -1 14 C-1.87807504 9.60962482 -2.08226278 8.20656508 -1.0625 4.1875 C-0.86785156 3.39730469 -0.67320312 2.60710937 -0.47265625 1.79296875 C-0.31667969 1.20128906 -0.16070312 0.60960938 0 0 Z " fill="#F2CF65" transform="translate(169,90)"/>
<path d="M0 0 C0.33 0 0.66 0 1 0 C1 12.87 1 25.74 1 39 C-0.32 39 -1.64 39 -3 39 C-3 35.37 -3 31.74 -3 28 C-2.34 28 -1.68 28 -1 28 C-0.67 18.76 -0.34 9.52 0 0 Z " fill="#3B3A33" transform="translate(185,19)"/>
<path d="M0 0 C2 1 2 1 3.1015625 3.546875 C4.12685173 7.48755189 4.38359284 11.20458265 4.375 15.25 C4.37411377 15.99709229 4.37322754 16.74418457 4.37231445 17.51391602 C4.2450257 23.4835649 3.33269328 28.90621797 0 34 C-0.99 34.66 -1.98 35.32 -3 36 C-3 34.68 -3 33.36 -3 32 C-2.34 32 -1.68 32 -1 32 C1.10379918 24.12327569 3.15032437 16.20166336 2 8 C1.34 7.34 0.68 6.68 0 6 C-0.125 2.875 -0.125 2.875 0 0 Z " fill="#F4CD52" transform="translate(148,61)"/>
<path d="M0 0 C0.99 0.66 1.98 1.32 3 2 C3 2.66 3 3.32 3 4 C2.443125 3.649375 1.88625 3.29875 1.3125 2.9375 C-1.66125011 1.73192563 -3.01310836 1.85119552 -6 3 C-7.69882448 5.49759982 -7.69882448 5.49759982 -9 8 C-9.66 8 -10.32 8 -11 8 C-11.66 15.26 -12.32 22.52 -13 30 C-13.33 30 -13.66 30 -14 30 C-14.66732321 9.85672533 -14.66732321 9.85672533 -8.6875 1.9375 C-5.45559609 -0.39247724 -3.90171259 -0.59373887 0 0 Z " fill="#F5C84F" transform="translate(145,57)"/>
<path d="M0 0 C0.763125 0.495 1.52625 0.99 2.3125 1.5 C3.075625 1.87125 3.83875 2.2425 4.625 2.625 C6.66655434 4.89339371 6.55725312 5.71251706 6.5625 8.6875 C6.48 9.945625 6.3975 11.20375 6.3125 12.5 C5.9825 12.5 5.6525 12.5 5.3125 12.5 C5.3125 10.52 5.3125 8.54 5.3125 6.5 C0.08146913 3.95786263 0.08146913 3.95786263 -5.3125 4.5625 C-7.98613019 6.35154251 -7.98613019 6.35154251 -8.5 9.6875 C-8.561875 10.615625 -8.62375 11.54375 -8.6875 12.5 C-9.0175 12.5 -9.3475 12.5 -9.6875 12.5 C-10.29394058 7.38857224 -10.29394058 7.38857224 -9.6875 4.5 C-7.024068 1.19704337 -4.26699648 -0.79385981 0 0 Z " fill="#D1DCD3" transform="translate(129.6875,207.5)"/>
<path d="M0 0 C0.99 0.33 1.98 0.66 3 1 C3 7.27 3 13.54 3 20 C2.01 20 1.02 20 0 20 C0 13.4 0 6.8 0 0 Z " fill="#655753" transform="translate(73,25)"/>
<path d="M0 0 C0.99 0 1.98 0 3 0 C3 9.24 3 18.48 3 28 C2.67 28 2.34 28 2 28 C1.67 21.73 1.34 15.46 1 9 C0.34 8.67 -0.32 8.34 -1 8 C-1.04241723 5.66705225 -1.04092937 3.33297433 -1 1 C-0.67 0.67 -0.34 0.34 0 0 Z " fill="#8D3A2A" transform="translate(74,17)"/>
<path d="M0 0 C2.5 1 2.5 1 5 3 C5.46837899 5.79374292 5.23424505 8.14221036 5 11 C3.35 11 1.7 11 0 11 C0 7.37 0 3.74 0 0 Z " fill="#348135" transform="translate(129,211)"/>
<path d="M0 0 C3.03200339 1.0106678 3.99878825 1.63493157 6 4 C6.33 4.99 6.66 5.98 7 7 C7.66 6.01 8.32 5.02 9 4 C9.99 4.33 10.98 4.66 12 5 C11.34 5 10.68 5 10 5 C9.67 7.97 9.34 10.94 9 14 C8.01 14.33 7.02 14.66 6 15 C5 14 5 14 4.90234375 11.93359375 C4.91974609 10.69802734 4.91974609 10.69802734 4.9375 9.4375 C4.94652344 8.61121094 4.95554687 7.78492187 4.96484375 6.93359375 C4.97644531 6.29550781 4.98804687 5.65742187 5 5 C4.01 4.67 3.02 4.34 2 4 C0.8125 1.9375 0.8125 1.9375 0 0 Z " fill="#E2795D" transform="translate(111,77)"/>
<path d="M0 0 C0.33 0 0.66 0 1 0 C1.33 4.95 1.66 9.9 2 15 C4.24362573 15.2284549 4.24362573 15.2284549 6.125 13 C6.74375 12.34 7.3625 11.68 8 11 C8.66 11.33 9.32 11.66 10 12 C9.43410156 12.50789063 8.86820313 13.01578125 8.28515625 13.5390625 C3.58143124 17.82700637 3.58143124 17.82700637 1 23.5 C1 24.325 1 25.15 1 26 C0.67 26 0.34 26 0 26 C0 17.42 0 8.84 0 0 Z " fill="#E1684F" transform="translate(77,25)"/>
<path d="M0 0 C0 3.3 0 6.6 0 10 C-1.65 10 -3.3 10 -5 10 C-5.29296875 3.9453125 -5.29296875 3.9453125 -5 2 C-2 0 -2 0 0 0 Z " fill="#B35214" transform="translate(127,211)"/>
<path d="M0 0 C0.66 0 1.32 0 2 0 C2.82622671 5.60563042 3.06795656 10.42289352 2 16 C-0.75562541 13.24437459 -0.43034519 11.2779595 -0.6875 7.4375 C-0.77386719 6.26058594 -0.86023438 5.08367187 -0.94921875 3.87109375 C-0.96597656 2.92363281 -0.98273438 1.97617188 -1 1 C-0.67 0.67 -0.34 0.34 0 0 Z " fill="#DF6A44" transform="translate(118,91)"/>
<path d="M0 0 C1.65 0 3.3 0 5 0 C4.25 6.625 4.25 6.625 2 10 C1.34 10 0.68 10 0 10 C0 6.7 0 3.4 0 0 Z " fill="#1B6184" transform="translate(128,223)"/>
<path d="M0 0 C0.33 0.99 0.66 1.98 1 3 C0.01 3.99 -0.98 4.98 -2 6 C0.97 6.495 0.97 6.495 4 7 C4 7.33 4 7.66 4 8 C-1.61 8 -7.22 8 -13 8 C-13 7.67 -13 7.34 -13 7 C-10.69 7 -8.38 7 -6 7 C-5.67 6.01 -5.34 5.02 -5 4 C-4.01 3.67 -3.02 3.34 -2 3 C-1.34 2.01 -0.68 1.02 0 0 Z " fill="#36976E" transform="translate(132,232)"/>
<path d="M0 0 C0.33 0 0.66 0 1 0 C2.18933594 6.99272215 1.99415978 11.53261488 -1 18 C-1.66 17.34 -2.32 16.68 -3 16 C-2.34 13.69 -1.68 11.38 -1 9 C-2.32 8.67 -3.64 8.34 -5 8 C-3.35 8 -1.7 8 0 8 C0 5.36 0 2.72 0 0 Z " fill="#A4BCB5" transform="translate(134,214)"/>
<path d="M0 0 C0.33 0 0.66 0 1 0 C1.33 3.63 1.66 7.26 2 11 C1.01 11.495 1.01 11.495 0 12 C-0.66 11.67 -1.32 11.34 -2 11 C-2 9.02 -2 7.04 -2 5 C-1.67 5 -1.34 5 -1 5 C-0.67 3.35 -0.34 1.7 0 0 Z " fill="#D8795D" transform="translate(120,100)"/>
<path d="M0 0 C1.32 0 2.64 0 4 0 C4 2.64 4 5.28 4 8 C3.01 7.67 2.02 7.34 1 7 C0.67 4.69 0.34 2.38 0 0 Z " fill="#D76713" transform="translate(123,223)"/>
<path d="M0 0 C0.33 0 0.66 0 1 0 C1 2.31 1 4.62 1 7 C2.65 7 4.3 7 6 7 C6 7.33 6 7.66 6 8 C4.35 8 2.7 8 1 8 C1.66 10.31 2.32 12.62 3 15 C2.34 15 1.68 15 1 15 C-0.42705634 9.69276568 -1.4002792 5.46108889 0 0 Z " fill="#B7AFA8" transform="translate(121,214)"/>
<path d="M0 0 C2.31 1.65 4.62 3.3 7 5 C6.01 5.495 6.01 5.495 5 6 C2.375 4.5625 2.375 4.5625 0 3 C0 5.64 0 8.28 0 11 C-0.33 11 -0.66 11 -1 11 C-1.02688151 9.35425434 -1.04634123 7.70838587 -1.0625 6.0625 C-1.07410156 5.14597656 -1.08570312 4.22945312 -1.09765625 3.28515625 C-1 1 -1 1 0 0 Z " fill="#CFC366" transform="translate(90,137)"/>
<path d="M0 0 C0.66 0 1.32 0 2 0 C2 2.97 2 5.94 2 9 C1.01 8.67 0.02 8.34 -1 8 C-1.04241723 5.66705225 -1.04092937 3.33297433 -1 1 C-0.67 0.67 -0.34 0.34 0 0 Z " fill="#432F2E" transform="translate(74,17)"/>
<path d="M0 0 C2.31 1.98 4.62 3.96 7 6 C6.67 7.65 6.34 9.3 6 11 C5.67 11 5.34 11 5 11 C4.67 9.35 4.34 7.7 4 6 C3.01 5.67 2.02 5.34 1 5 C0.67 3.35 0.34 1.7 0 0 Z " fill="#DF674F" transform="translate(84,24)"/>
<path d="M0 0 C0.33 0.99 0.66 1.98 1 3 C-0.375 4.5 -0.375 4.5 -2 6 C-2.66 6 -3.32 6 -4 6 C-4 7.32 -4 8.64 -4 10 C-4.66 10 -5.32 10 -6 10 C-5.58578031 5.16743695 -3.53586014 3.17320782 0 0 Z " fill="#4F9B74" transform="translate(175,24)"/>
<path d="M0 0 C-1.75 3.875 -1.75 3.875 -4 5 C-4.65772428 8.02934491 -4.65772428 8.02934491 -5 11 C-5.33 11 -5.66 11 -6 11 C-6.34886026 5.67988107 -6.34886026 5.67988107 -6 3 C-3.95950963 0.82347693 -2.99435075 0 0 0 Z " fill="#DBE0DC" transform="translate(126,209)"/>
<path d="M0 0 C2.05078125 0.03255208 4.1015625 0.06510417 6.15234375 0.09765625 C2.98993793 2.2059268 1.64576906 2.4358309 -2.03515625 2.72265625 C-3.38673828 2.83480469 -3.38673828 2.83480469 -4.765625 2.94921875 C-5.79623047 3.02269531 -5.79623047 3.02269531 -6.84765625 3.09765625 C-6.20828125 2.78828125 -5.56890625 2.47890625 -4.91015625 2.16015625 C-0.79887576 0.04222388 -0.79887576 0.04222388 0 0 Z " fill="#F3CC54" transform="translate(144.84765625,191.90234375)"/>
<path d="M0 0 C0.99 0.66 1.98 1.32 3 2 C3 2.66 3 3.32 3 4 C2.443125 3.649375 1.88625 3.29875 1.3125 2.9375 C-2.44318137 1.41492647 -5.2832512 2.76108373 -9 4 C-9 3.34 -9 2.68 -9 2 C-5.53001271 -0.31332486 -4.07490752 -0.33957563 0 0 Z " fill="#F4D161" transform="translate(145,57)"/>
<path d="M0 0 C0.99 0 1.98 0 3 0 C3.36923077 4.55384615 3.36923077 4.55384615 1.5 6.8125 C1.005 7.204375 0.51 7.59625 0 8 C0 5.36 0 2.72 0 0 Z " fill="#41332C" transform="translate(73,45)"/>
<path d="M0 0 C0.66 0.33 1.32 0.66 2 1 C-1.465 3.97 -1.465 3.97 -5 7 C-5.66 6.67 -6.32 6.34 -7 6 C-4.69 4.02 -2.38 2.04 0 0 Z " fill="#429976" transform="translate(97,213)"/>
<path d="M0 0 C0.99 0.33 1.98 0.66 3 1 C2.34 1 1.68 1 1 1 C0.67 2.65 0.34 4.3 0 6 C-0.99 6.33 -1.98 6.66 -3 7 C-1.125 2.25 -1.125 2.25 0 0 Z " fill="#E46E4C" transform="translate(120,81)"/>
</svg>
